<?xml version='1.0' encoding='UTF-8' standalone='no'?>
<!-- Created with Fritzing (http://www.fritzing.org/) -->
<svg xmlns="http://www.w3.org/2000/svg" x="0in" height="0.55in" y="0in" viewBox="0 0 43.2 39.6" baseProfile="tiny" width="0.6in"  version="1.2">
    <desc>
        <referenceFile>NCP1400_5V_Step-Up_v11_pcb.svg</referenceFile>
    </desc>
    <desc >Fritzing footprint generated by brd2svg</desc>
    <g gorn="0.1" stroke-width="0"  id="silkscreen">
        <path fill="none" stroke-width="0.576"  stroke="white" d="M0.288,39.312L0.288,0.288L42.912,0.288L42.912,39.312L0.288,39.312"/>
        <g stroke-width="0" >
            <title >element:C1</title>
            <g stroke-width="0" >
                <title >package:EIA3216</title>
                <line stroke-linecap="round" y1="22.3654" y2="18.1134" x1="32.5984" x2="32.5984" stroke-width="0.576"  stroke="white"/>
                <line stroke-linecap="round" y1="18.1134" y2="18.1134" x1="32.5984" x2="39.4016" stroke-width="0.576"  stroke="white"/>
                <line stroke-linecap="round" y1="18.1134" y2="22.3654" x1="39.4016" x2="39.4016" stroke-width="0.576"  stroke="white"/>
                <line stroke-linecap="round" y1="28.0346" y2="31.1527" x1="32.5984" x2="32.5984" stroke-width="0.576"  stroke="white"/>
                <line stroke-linecap="round" y1="31.1527" y2="32.2866" x1="32.5984" x2="33.7323" stroke-width="0.576"  stroke="white"/>
                <line stroke-linecap="round" y1="32.2866" y2="32.2866" x1="33.7323" x2="38.2677" stroke-width="0.576"  stroke="white"/>
                <line stroke-linecap="round" y1="32.2866" y2="31.1527" x1="38.2677" x2="39.4016" stroke-width="0.576"  stroke="white"/>
                <line stroke-linecap="round" y1="31.1527" y2="28.0346" x1="39.4016" x2="39.4016" stroke-width="0.576"  stroke="white"/>
            </g>
        </g>
        <g stroke-width="0" >
            <title >element:C2</title>
            <g stroke-width="0" >
                <title >package:EIA3528</title>
                <line stroke-linecap="round" y1="13.3512" y2="18.1701" x1="40.5354" x2="40.5354" stroke-width="0.576"  stroke="white"/>
                <line stroke-linecap="round" y1="18.1701" y2="18.1701" x1="40.5354" x2="31.6063" stroke-width="0.576"  stroke="white"/>
                <line stroke-linecap="round" y1="18.1701" y2="13.3512" x1="31.6063" x2="31.6063" stroke-width="0.576"  stroke="white"/>
                <line stroke-linecap="round" y1="7.96536" y2="4.56378" x1="40.3937" x2="40.3937" stroke-width="0.576"  stroke="white"/>
                <line stroke-linecap="round" y1="4.56378" y2="3.42992" x1="40.3937" x2="39.4016" stroke-width="0.576"  stroke="white"/>
                <line stroke-linecap="round" y1="3.42992" y2="3.42992" x1="39.4016" x2="32.4567" stroke-width="0.576"  stroke="white"/>
                <line stroke-linecap="round" y1="3.42992" y2="4.56378" x1="32.4567" x2="31.6063" stroke-width="0.576"  stroke="white"/>
                <line stroke-linecap="round" y1="4.56378" y2="7.96536" x1="31.6063" x2="31.6063" stroke-width="0.576"  stroke="white"/>
            </g>
        </g>
        <g stroke-width="0" >
            <title >element:D1</title>
            <g stroke-width="0" >
                <title >package:SMA-DIODE</title>
                <line stroke-linecap="round" y1="28.1197" y2="28.1197" x1="4.36535" x2="3.08976" stroke-width="0.576"  stroke="white"/>
                <line stroke-linecap="round" y1="28.1197" y2="15.0803" x1="3.08976" x2="3.08976" stroke-width="0.576"  stroke="white"/>
                <line stroke-linecap="round" y1="15.0803" y2="15.0803" x1="3.08976" x2="4.36535" stroke-width="0.576"  stroke="white"/>
                <line stroke-linecap="round" y1="15.0803" y2="15.0803" x1="10.0346" x2="11.3103" stroke-width="0.576"  stroke="white"/>
                <line stroke-linecap="round" y1="15.0803" y2="28.1197" x1="11.3103" x2="11.3103" stroke-width="0.576"  stroke="white"/>
                <line stroke-linecap="round" y1="28.1197" y2="28.1197" x1="11.3103" x2="10.0346" stroke-width="0.576"  stroke="white"/>
                <line stroke-linecap="round" y1="18.7654" y2="18.7654" x1="4.36535" x2="10.0346" stroke-width="0.576"  stroke="white"/>
            </g>
        </g>
        <g stroke-width="0" >
            <title >element:IC1</title>
            <g stroke-width="0" >
                <title >package:SOT23-5</title>
                <line stroke-linecap="round" y1="3.168" y2="3.168" x1="19.3028" x2="23.8972" stroke-width="0.432"  stroke="white"/>
                <line stroke-linecap="round" y1="11.232" y2="11.232" x1="23.8972" x2="19.3028" stroke-width="0.432"  stroke="white"/>
                <line stroke-linecap="round" y1="8.68082" y2="5.71918" x1="19.3028" x2="19.3028" stroke-width="0.432"  stroke="white"/>
                <line stroke-linecap="round" y1="8.41212" y2="8.68082" x1="23.8972" x2="23.8972" stroke-width="0.432"  stroke="white"/>
                <line stroke-linecap="round" y1="5.71918" y2="5.98791" x1="23.8972" x2="23.8972" stroke-width="0.432"  stroke="white"/>
                <line stroke-linecap="round" y1="10.9633" y2="11.232" x1="23.8972" x2="23.8972" stroke-width="0.432"  stroke="white"/>
                <line stroke-linecap="round" y1="3.168" y2="3.43673" x1="23.8972" x2="23.8972" stroke-width="0.432"  stroke="white"/>
                <line stroke-linecap="round" y1="3.43673" y2="3.168" x1="19.3028" x2="19.3028" stroke-width="0.432"  stroke="white"/>
                <line stroke-linecap="round" y1="11.232" y2="10.9633" x1="19.3028" x2="19.3028" stroke-width="0.432"  stroke="white"/>
            </g>
        </g>
        <g stroke-width="0" >
            <title >element:JP1</title>
            <g stroke-width="0" >
                <title >package:1X03</title>
                <line stroke-linecap="round" y1="34.2" y2="32.4" x1="25.2" x2="27" stroke-width="0.576"  stroke="white"/>
                <line stroke-linecap="round" y1="32.4" y2="32.4" x1="27" x2="30.6" stroke-width="0.576"  stroke="white"/>
                <line stroke-linecap="round" y1="32.4" y2="34.2" x1="30.6" x2="32.4" stroke-width="0.576"  stroke="white"/>
                <line stroke-linecap="round" y1="37.8" y2="39.6" x1="32.4" x2="30.6" stroke-width="0.576"  stroke="white"/>
                <line stroke-linecap="round" y1="39.6" y2="39.6" x1="30.6" x2="27" stroke-width="0.576"  stroke="white"/>
                <line stroke-linecap="round" y1="39.6" y2="37.8" x1="27" x2="25.2" stroke-width="0.576"  stroke="white"/>
                <line stroke-linecap="round" y1="32.4" y2="32.4" x1="12.6" x2="16.2" stroke-width="0.576"  stroke="white"/>
                <line stroke-linecap="round" y1="32.4" y2="34.2" x1="16.2" x2="18" stroke-width="0.576"  stroke="white"/>
                <line stroke-linecap="round" y1="37.8" y2="39.6" x1="18" x2="16.2" stroke-width="0.576"  stroke="white"/>
                <line stroke-linecap="round" y1="34.2" y2="32.4" x1="18" x2="19.8" stroke-width="0.576"  stroke="white"/>
                <line stroke-linecap="round" y1="32.4" y2="32.4" x1="19.8" x2="23.4" stroke-width="0.576"  stroke="white"/>
                <line stroke-linecap="round" y1="32.4" y2="34.2" x1="23.4" x2="25.2" stroke-width="0.576"  stroke="white"/>
                <line stroke-linecap="round" y1="37.8" y2="39.6" x1="25.2" x2="23.4" stroke-width="0.576"  stroke="white"/>
                <line stroke-linecap="round" y1="39.6" y2="39.6" x1="23.4" x2="19.8" stroke-width="0.576"  stroke="white"/>
                <line stroke-linecap="round" y1="39.6" y2="37.8" x1="19.8" x2="18" stroke-width="0.576"  stroke="white"/>
                <line stroke-linecap="round" y1="34.2" y2="37.8" x1="10.8" x2="10.8" stroke-width="0.576"  stroke="white"/>
                <line stroke-linecap="round" y1="32.4" y2="34.2" x1="12.6" x2="10.8" stroke-width="0.576"  stroke="white"/>
                <line stroke-linecap="round" y1="37.8" y2="39.6" x1="10.8" x2="12.6" stroke-width="0.576"  stroke="white"/>
                <line stroke-linecap="round" y1="39.6" y2="39.6" x1="16.2" x2="12.6" stroke-width="0.576"  stroke="white"/>
                <line stroke-linecap="round" y1="34.2" y2="37.8" x1="32.4" x2="32.4" stroke-width="0.576"  stroke="white"/>
            </g>
        </g>
        <g stroke-width="0" >
            <title >element:U1</title>
            <g stroke-width="0" >
                <title >package:CR54</title>
            </g>
        </g>
    </g>
    <g gorn="0.2" stroke-width="0"  id="copper1">
        <g gorn="0.2.0" stroke-width="0"  id="copper0">
            <circle cx="28.8" cy="36" gorn="0.2.0.0" fill="none" stroke-width="0.864" r="1.872"  connectorname="VIN" stroke="#F7BD13" id="connector13pad"/>
            <circle cx="14.4" cy="36" gorn="0.2.0.1" fill="none" stroke-width="0.864" r="1.872"  connectorname="GND" stroke="#F7BD13" id="connector11pad"/>
            <circle cx="21.6" cy="36" gorn="0.2.0.2" fill="none" stroke-width="0.864" r="1.872"  connectorname="VOUT" stroke="#F7BD13" id="connector12pad"/>
        </g>
    </g>
</svg>
