<?xml version='1.0' encoding='UTF-8' standalone='no'?>
<!-- Created with Fritzing (http://www.fritzing.org/) -->
<svg xmlns="http://www.w3.org/2000/svg" x="0in" height="0.55in" y="0in" viewBox="0 0 43.2 39.6" baseProfile="tiny" width="0.6in"  version="1.2">
    <desc>
        <referenceFile>NCP1400_5V_Step-Up_v11_breadboard.svg</referenceFile>
    </desc>
    <desc >Fritzing breadboard generated by brd2svg</desc>
    <g gorn="0.1" stroke-width="0"  id="breadboard">
        <g gorn="0.1.0" stroke-width="0"  id="icon">
            <path fill="#C62717" stroke-width="0"  stroke="none" d="M0,39.6L0,0L43.2,0L43.2,39.6L0,39.6M12.96,36a1.44,1.44,0,1,0,2.88,0,1.44,1.44,0,1,0,-2.88,0zM20.16,36a1.44,1.44,0,1,0,2.88,0,1.44,1.44,0,1,0,-2.88,0zM27.36,36a1.44,1.44,0,1,0,2.88,0,1.44,1.44,0,1,0,-2.88,0z"/>
            <g stroke-width="0" >
                <title >layer 21</title>
                <g stroke-width="0" >
                    <title >element:C1</title>
                    <g stroke-width="0" >
                        <title >package:EIA3216</title>
                        <line stroke-linecap="round" y1="22.3654" y2="18.1134" x1="32.5984" x2="32.5984" stroke-width="0.576"  stroke="white"/>
                        <line stroke-linecap="round" y1="18.1134" y2="18.1134" x1="32.5984" x2="39.4016" stroke-width="0.576"  stroke="white"/>
                        <line stroke-linecap="round" y1="18.1134" y2="22.3654" x1="39.4016" x2="39.4016" stroke-width="0.576"  stroke="white"/>
                        <line stroke-linecap="round" y1="28.0346" y2="31.1527" x1="32.5984" x2="32.5984" stroke-width="0.576"  stroke="white"/>
                        <line stroke-linecap="round" y1="31.1527" y2="32.2866" x1="32.5984" x2="33.7323" stroke-width="0.576"  stroke="white"/>
                        <line stroke-linecap="round" y1="32.2866" y2="32.2866" x1="33.7323" x2="38.2677" stroke-width="0.576"  stroke="white"/>
                        <line stroke-linecap="round" y1="32.2866" y2="31.1527" x1="38.2677" x2="39.4016" stroke-width="0.576"  stroke="white"/>
                        <line stroke-linecap="round" y1="31.1527" y2="28.0346" x1="39.4016" x2="39.4016" stroke-width="0.576"  stroke="white"/>
                    </g>
                </g>
                <g stroke-width="0" >
                    <title >element:C2</title>
                    <g stroke-width="0" >
                        <title >package:EIA3528</title>
                        <line stroke-linecap="round" y1="13.3512" y2="18.1701" x1="40.5354" x2="40.5354" stroke-width="0.576"  stroke="white"/>
                        <line stroke-linecap="round" y1="18.1701" y2="18.1701" x1="40.5354" x2="31.6063" stroke-width="0.576"  stroke="white"/>
                        <line stroke-linecap="round" y1="18.1701" y2="13.3512" x1="31.6063" x2="31.6063" stroke-width="0.576"  stroke="white"/>
                        <line stroke-linecap="round" y1="7.96536" y2="4.56378" x1="40.3937" x2="40.3937" stroke-width="0.576"  stroke="white"/>
                        <line stroke-linecap="round" y1="4.56378" y2="3.42992" x1="40.3937" x2="39.4016" stroke-width="0.576"  stroke="white"/>
                        <line stroke-linecap="round" y1="3.42992" y2="3.42992" x1="39.4016" x2="32.4567" stroke-width="0.576"  stroke="white"/>
                        <line stroke-linecap="round" y1="3.42992" y2="4.56378" x1="32.4567" x2="31.6063" stroke-width="0.576"  stroke="white"/>
                        <line stroke-linecap="round" y1="4.56378" y2="7.96536" x1="31.6063" x2="31.6063" stroke-width="0.576"  stroke="white"/>
                    </g>
                </g>
                <g stroke-width="0" >
                    <title >element:D1</title>
                    <g stroke-width="0" >
                        <title >package:SMA-DIODE</title>
                        <line stroke-linecap="round" y1="28.1197" y2="28.1197" x1="4.36535" x2="3.08976" stroke-width="0.576"  stroke="white"/>
                        <line stroke-linecap="round" y1="28.1197" y2="15.0803" x1="3.08976" x2="3.08976" stroke-width="0.576"  stroke="white"/>
                        <line stroke-linecap="round" y1="15.0803" y2="15.0803" x1="3.08976" x2="4.36535" stroke-width="0.576"  stroke="white"/>
                        <line stroke-linecap="round" y1="15.0803" y2="15.0803" x1="10.0346" x2="11.3103" stroke-width="0.576"  stroke="white"/>
                        <line stroke-linecap="round" y1="15.0803" y2="28.1197" x1="11.3103" x2="11.3103" stroke-width="0.576"  stroke="white"/>
                        <line stroke-linecap="round" y1="28.1197" y2="28.1197" x1="11.3103" x2="10.0346" stroke-width="0.576"  stroke="white"/>
                        <line stroke-linecap="round" y1="18.7654" y2="18.7654" x1="4.36535" x2="10.0346" stroke-width="0.576"  stroke="white"/>
                    </g>
                </g>
                <g stroke-width="0" >
                    <title >element:IC1</title>
                    <g stroke-width="0" >
                        <title >package:SOT23-5</title>
                        <line stroke-linecap="round" y1="3.168" y2="3.168" x1="19.3028" x2="23.8972" stroke-width="0.432"  stroke="white"/>
                        <line stroke-linecap="round" y1="11.232" y2="11.232" x1="23.8972" x2="19.3028" stroke-width="0.432"  stroke="white"/>
                        <line stroke-linecap="round" y1="8.68082" y2="5.71918" x1="19.3028" x2="19.3028" stroke-width="0.432"  stroke="white"/>
                        <line stroke-linecap="round" y1="8.41212" y2="8.68082" x1="23.8972" x2="23.8972" stroke-width="0.432"  stroke="white"/>
                        <line stroke-linecap="round" y1="5.71918" y2="5.98791" x1="23.8972" x2="23.8972" stroke-width="0.432"  stroke="white"/>
                        <line stroke-linecap="round" y1="10.9633" y2="11.232" x1="23.8972" x2="23.8972" stroke-width="0.432"  stroke="white"/>
                        <line stroke-linecap="round" y1="3.168" y2="3.43673" x1="23.8972" x2="23.8972" stroke-width="0.432"  stroke="white"/>
                        <line stroke-linecap="round" y1="3.43673" y2="3.168" x1="19.3028" x2="19.3028" stroke-width="0.432"  stroke="white"/>
                        <line stroke-linecap="round" y1="11.232" y2="10.9633" x1="19.3028" x2="19.3028" stroke-width="0.432"  stroke="white"/>
                    </g>
                </g>
                <g stroke-width="0" >
                    <title >element:JP1</title>
                    <g stroke-width="0" >
                        <title >package:1X03</title>
                        <line stroke-linecap="round" y1="34.2" y2="32.4" x1="25.2" x2="27" stroke-width="0.576"  stroke="white"/>
                        <line stroke-linecap="round" y1="32.4" y2="32.4" x1="27" x2="30.6" stroke-width="0.576"  stroke="white"/>
                        <line stroke-linecap="round" y1="32.4" y2="34.2" x1="30.6" x2="32.4" stroke-width="0.576"  stroke="white"/>
                        <line stroke-linecap="round" y1="37.8" y2="39.6" x1="32.4" x2="30.6" stroke-width="0.576"  stroke="white"/>
                        <line stroke-linecap="round" y1="39.6" y2="39.6" x1="30.6" x2="27" stroke-width="0.576"  stroke="white"/>
                        <line stroke-linecap="round" y1="39.6" y2="37.8" x1="27" x2="25.2" stroke-width="0.576"  stroke="white"/>
                        <line stroke-linecap="round" y1="32.4" y2="32.4" x1="12.6" x2="16.2" stroke-width="0.576"  stroke="white"/>
                        <line stroke-linecap="round" y1="32.4" y2="34.2" x1="16.2" x2="18" stroke-width="0.576"  stroke="white"/>
                        <line stroke-linecap="round" y1="37.8" y2="39.6" x1="18" x2="16.2" stroke-width="0.576"  stroke="white"/>
                        <line stroke-linecap="round" y1="34.2" y2="32.4" x1="18" x2="19.8" stroke-width="0.576"  stroke="white"/>
                        <line stroke-linecap="round" y1="32.4" y2="32.4" x1="19.8" x2="23.4" stroke-width="0.576"  stroke="white"/>
                        <line stroke-linecap="round" y1="32.4" y2="34.2" x1="23.4" x2="25.2" stroke-width="0.576"  stroke="white"/>
                        <line stroke-linecap="round" y1="37.8" y2="39.6" x1="25.2" x2="23.4" stroke-width="0.576"  stroke="white"/>
                        <line stroke-linecap="round" y1="39.6" y2="39.6" x1="23.4" x2="19.8" stroke-width="0.576"  stroke="white"/>
                        <line stroke-linecap="round" y1="39.6" y2="37.8" x1="19.8" x2="18" stroke-width="0.576"  stroke="white"/>
                        <line stroke-linecap="round" y1="34.2" y2="37.8" x1="10.8" x2="10.8" stroke-width="0.576"  stroke="white"/>
                        <line stroke-linecap="round" y1="32.4" y2="34.2" x1="12.6" x2="10.8" stroke-width="0.576"  stroke="white"/>
                        <line stroke-linecap="round" y1="37.8" y2="39.6" x1="10.8" x2="12.6" stroke-width="0.576"  stroke="white"/>
                        <line stroke-linecap="round" y1="39.6" y2="39.6" x1="16.2" x2="12.6" stroke-width="0.576"  stroke="white"/>
                        <line stroke-linecap="round" y1="34.2" y2="37.8" x1="32.4" x2="32.4" stroke-width="0.576"  stroke="white"/>
                    </g>
                </g>
                <g stroke-width="0" >
                    <title >element:U1</title>
                    <g stroke-width="0" >
                        <title >package:CR54</title>
                    </g>
                </g>
            </g>
            <rect x="32.5984" height="14.1732" y="18.1134" width="6.80315" fill="#333333" stroke-width="0"  stroke="none" fill-opacity="1"/>
            <rect x="31.6063" height="14.7401" y="3.42992" width="8.92915" fill="#333333" stroke-width="0"  stroke="none" fill-opacity="1"/>
            <rect x="3.08976" height="13.0393" y="15.0803" width="8.22046" fill="#333333" stroke-width="0"  stroke="none" fill-opacity="1"/>
            <rect x="19.3028" height="8.064" y="3.168" width="4.59439" fill="#333333" stroke-width="0"  stroke="none" fill-opacity="1"/>
            <circle cx="14.4" cy="36" gorn="0.1.0.6" fill="none" stroke-width="0.864" r="1.872"  connectorname="GND" stroke="#9A916C" id="connector11pin"/>
            <circle cx="21.6" cy="36" gorn="0.1.0.7" fill="none" stroke-width="0.864" r="1.872"  connectorname="VOUT" stroke="#9A916C" id="connector12pin"/>
            <circle cx="28.8" cy="36" gorn="0.1.0.8" fill="none" stroke-width="0.864" r="1.872"  connectorname="VIN" stroke="#9A916C" id="connector13pin"/>
        </g>
        <g transform="matrix(1, 0, 0, 1, 3.56126, 2.82902)" >
            <g gorn="0.1.1.0" stroke-width="0"  id="sfe-logo-flame">
                <g stroke-width="0" >
                    <title >element:JP2</title>
                    <g stroke-width="0" >
                        <title >package:SFE-LOGO-FLAME</title>
                        <title >polygon</title>
                    </g>
                </g>
                <g stroke-width="0" >
                    <path fill="#FFFFFF" stroke-width="0"  d="M4.378,1.29c0,0,0.113,0.482,-0.251,0.55C3.873,1.885,3.464,1.634,3.258,1.383c-0.255,-0.31,-0.223,-0.554,-0.024,-0.770998c0.297,-0.327,0.805003,-0.2,0.805003,-0.2S3.107,-0.406,2.136,0.263C1.273,0.858002,1.521,1.669,2.299,2.376c0.703,0.64,0.144,1.341,-0.564,1.249c-0.486,-0.062,-0.685,-0.45,-0.568,-0.69c0.102,-0.205,0.449,-0.33,0.449,-0.33s-0.4,-0.163,-0.870998,0.016C0.322,2.779,-0.027,3.129,0.001,4.004l0,4.06c0,0,0.438,-0.54,0.949997,-1.088C1.528,6.358,1.79,5.94,2.381,5.99C3.5,6.058,4.308,5.561,4.857,4.764C5.913,3.232,5.087,1.519,4.378,1.29z"/>
                </g>
            </g>
        </g>
    </g>
</svg>
