<?xml version='1.0' encoding='UTF-8' standalone='no'?>
<!-- Generator: Adobe Illustrator 13.0.0, SVG Export Plug-In . SVG Version: 6.00 Build 14948)  -->
<svg xmlns="http://www.w3.org/2000/svg" gorn="0" version="1.0" height="32" id="svg2" x="0px" y="0px" width="32" baseProfile="tiny" >
    <desc >
        <referenceFile >basic_toggle_switch.svg</referenceFile>
    </desc>
    <rect gorn="0.1" height="1.0857501" id="connector0terminal" x="8.3900003" style="fill:#b3b3b3" y="27.333277" width="1.7305385" />
    <rect gorn="0.2" height="1.0857501" id="connector1terminal" x="15.256528" style="fill:#b3b3b3" y="27.333277" width="1.7312251" />
    <rect gorn="0.3" height="1.0857501" id="connector2terminal" x="22.12237" style="fill:#b3b3b3" y="27.333277" width="1.7312251" />
    <rect gorn="0.4" height="4.8931136" id="connector0pin" x="8.3900003" style="fill:#b3b3b3" y="23.527231" width="1.7305385" />
    <rect gorn="0.5" height="4.8931136" id="connector1pin" x="15.256528" style="fill:#b3b3b3" y="23.527231" width="1.7312251" />
    <rect gorn="0.6" height="4.8931136" id="connector2pin" x="22.12237" style="fill:#b3b3b3" y="23.527231" width="1.7312251" />
    <g transform="matrix(0.6867216,0,0,0.6580304,23.405029,7.5682501)" >
        <g >
            <g >
                <g gorn="0.7.0.0.0" id="breadboard" >
                    <rect gorn="0.7.0.0.0.0" height="20.785" id="rect4" x="-21.877001" style="fill:#b3b3b3" y="11.025" width="2.52" />
                    <rect gorn="0.7.0.0.0.1" height="20.785" id="rect6" x="-11.878" style="fill:#b3b3b3" y="11.025" width="2.5209999" />
                    <rect gorn="0.7.0.0.0.2" height="20.785" id="rect8" x="-1.88" style="fill:#b3b3b3" y="11.025" width="2.5209999" />
                    <polygon points="-17.117,21.169 -19.357,22.169 -21.876,22.169 -24.117,21.169 -24.117,8.99 -17.117,8.99 -17.117,21.169 " gorn="0.7.0.0.0.3" id="polygon21" style="fill:#b3b3b3" />
                    <polygon points="-7.118,21.169 -9.357,22.169 -11.877,22.169 -14.118,21.169 -14.118,8.99 -7.118,8.99 -7.118,21.169 " gorn="0.7.0.0.0.4" id="polygon23" style="fill:#b3b3b3" />
                    <polygon points="2.88,21.169 0.641,22.169 -1.878,22.169 -4.119,21.169 -4.119,8.99 2.88,8.99 2.88,21.169 " gorn="0.7.0.0.0.5" id="polygon25" style="fill:#b3b3b3" />
                    <rect gorn="0.7.0.0.0.6" height="18.471001" id="rect27" x="-29.115999" style="fill:#1a1a1a" y="-0.233" width="36.997002" />
                    <rect gorn="0.7.0.0.0.7" height="4.6490002" id="rect49" x="-29.115999" y="3.3699999" width="36.997002" />
                    <rect gorn="0.7.0.0.0.8" height="5.7480001" id="rect51" x="-29.115999" style="fill:#333333" y="-0.37900001" width="36.997002" />
                    <rect gorn="0.7.0.0.0.9" height="4.6490002" id="rect49_1_" x="-17.761999" y="0.182" width="15.56" />
                    <rect gorn="0.7.0.0.0.10" height="7.3319998" id="rect27_1_" x="-9.0719995" style="fill:#1a1a1a" y="-2.6659999" width="6.6630001" />
                    <rect gorn="0.7.0.0.0.11" height="3.046" id="rect51_1_" x="-9.0719995" style="fill:#333333" y="-5.7119999" width="6.6630001" />
                </g>
            </g>
        </g>
    </g>
</svg>
