<?xml version='1.0' encoding='utf-8'?>
<!DOCTYPE svg>
<svg xmlns="http://www.w3.org/2000/svg" height="0.37592in" width="0.36998in" xml:space="preserve" viewBox="0 0 36.998 37.592" baseProfile="basic"  xmlns:xml="http://www.w3.org/XML/1998/namespace" id="svg2" version="1.1" x="0px" y="0px" gorn="0">
    <desc >
        <referenceFile >basic_toggle_switch.svg</referenceFile>
    </desc>
    <g  id="breadboard" gorn="0.1">
        <rect height="1.647" width="2.52" fill="#8C8C8C"  id="connector0terminal" x="6.033" y="35.105" gorn="0.1.0"/>
        <rect height="1.647" width="2.521" fill="#8C8C8C"  id="connector1terminal" x="16.032" y="35.105" gorn="0.1.1"/>
        <rect height="1.647" width="2.521" fill="#8C8C8C"  id="connector2terminal" x="26.03" y="35.105" gorn="0.1.2"/>
        <rect height="7.438" width="2.52" fill="#8C8C8C"  id="connector0pin" x="6.033" y="29.32" gorn="0.1.3"/>
        <rect height="7.438" width="2.521" fill="#8C8C8C"  id="connector1pin" x="16.032" y="29.32" gorn="0.1.4"/>
        <rect height="7.438" width="2.521" fill="#8C8C8C"  id="connector2pin" x="26.03" y="29.32" gorn="0.1.5"/>
        <rect height="20.785" width="2.52" fill="#8C8C8C"  id="rect4" x="6.021" y="15.905" gorn="0.1.6"/>
        <rect height="20.785" width="2.521" fill="#8C8C8C"  id="rect6" x="16.02" y="15.905" gorn="0.1.7"/>
        <rect height="20.785" width="2.521" fill="#8C8C8C"  id="rect8" x="26.018" y="15.905" gorn="0.1.8"/>
        <polygon fill="#8C8C8C"  id="polygon21" points="10.781,26.049 8.541,27.049 6.022,27.049 3.781,26.049 3.781,13.87 10.781,13.87 " gorn="0.1.9"/>
        <polygon fill="#8C8C8C"  id="polygon23" points="20.782,26.049 18.539,27.049 16.021,27.049 13.781,26.049 13.781,13.87 &#xa;&#x9;20.782,13.87 " gorn="0.1.10"/>
        <polygon fill="#8C8C8C"  id="polygon25" points="30.78,26.049 28.537,27.049 26.02,27.049 23.78,26.049 23.78,13.87 30.78,13.87 " gorn="0.1.11"/>
        <rect height="18.472" width="36.998" fill="#1A1A1A"  id="rect27" x="-1.218" y="4.646" gorn="0.1.12"/>
        <rect height="4.649" width="36.998"  id="rect49" x="-1.218" y="8.25" gorn="0.1.13"/>
        <rect height="5.748" width="36.998" fill="#333333"  id="rect51" x="-1.218" y="4.501" gorn="0.1.14"/>
        <rect height="4.649" width="15.562"  id="rect49_1_" x="10.136" y="5.062" gorn="0.1.15"/>
        <rect height="7.332" width="6.664" fill="#1A1A1A"  id="rect27_1_" x="18.826" y="2.214" gorn="0.1.16"/>
        <rect height="3.046" width="6.664" fill="#333333"  id="rect51_1_" x="18.826" y="-0.833" gorn="0.1.17"/>
    </g>
</svg>
